<svg width="300" height="300" viewBox="0 0 300 300" fill="none" xmlns="http://www.w3.org/2000/svg">
<g opacity="0.2">
<path d="M79.5983 78.1023C81.8852 78.6023 82.586 79.1592 84.8852 78.0114C88.8688 76.0228 96 68.1705 101.25 64.7387C175.758 16.0114 274.439 71.7955 268.168 153.966L273.209 153.273C278.643 109.796 249.172 65.7273 205.672 49.2841C171.467 36.3637 133.918 38.841 102.467 56.8069C98.4467 59.1023 76.5492 74.0228 79.5983 78.1137V78.1023Z" fill="#DA291C"/>
<path d="M60.6023 106.409C52.1679 92.1935 31.8444 86.0455 16.033 93.5226C-1.37688 101.761 14.582 102.989 21.6394 106.228C29.8279 109.978 40.4875 119.285 44.7292 126.762C51.3684 138.444 49.5492 147.761 51.5779 160.057C59.9139 210.454 106.451 247.465 161.606 247.954L161.632 247.932C162.86 249.023 158.644 255.772 157.721 257.329C151.894 267.193 137.139 275.887 162.221 273.943C182.016 272.409 196.672 260.931 206.373 245.704C207.737 243.556 208.476 239.194 209.693 238.012C211.648 236.114 226.266 229.568 230.791 226.398C245.188 216.295 260.225 198.046 266.311 182.25C271.561 168.614 269.754 166.41 257.729 157.387C204 117.069 166.168 199.92 114.824 186.488C89.0166 179.738 66.8243 148.045 79.7341 124.113C85.2792 113.83 94.7463 110.545 106.844 112.363C112.881 113.273 126.762 120.943 118.574 107.182C105.849 85.784 74.2744 86.0116 60.6023 106.409ZM175.033 218.534C178.119 220.569 172.525 240.864 171.111 244.784C170.127 247.489 168.148 251.773 166.759 254.353C165.787 256.171 157.138 267.594 157.979 268.294C157.975 268.294 157.971 268.295 157.968 268.295C157.12 267.602 165.774 256.172 166.746 254.353C168.123 251.773 170.115 247.5 171.098 244.784C172.524 240.866 178.114 220.586 175.024 218.537C175.027 218.536 175.03 218.535 175.033 218.534ZM202.075 239.27C199.726 245.232 196.416 250.753 190.978 255.584C196.375 250.771 199.705 245.23 202.075 239.27ZM164.509 242.318C151.55 242.796 138.996 239.818 126.701 236.659L113.902 230.966L113.889 230.954C132.811 233.159 151.032 232.909 168.983 226.42L164.509 242.318ZM210.615 229.795C217.869 205.693 226.808 168.319 262.082 172.603C263.901 173.864 262.721 174 262.389 175.182C259.832 184.045 251.053 198.137 244.869 205.443C241.069 209.921 215.213 233.068 210.615 229.795ZM20.3777 99.8497C36.7442 104.993 53.1082 122.296 55.783 138.057C57.0248 145.398 56.4589 153.477 57.8728 161.034C62.2991 184.762 78.9471 213.898 104.656 221.932C119.846 226.681 133.7 227.402 147.659 225.401C133.691 227.408 119.834 226.69 104.643 221.932C78.9345 213.886 62.2874 184.761 57.8611 161.034C56.4471 153.477 57.0121 145.398 55.7703 138.057C53.053 122.034 36.2086 104.432 19.5857 99.6134H19.5984L20.3777 99.8497ZM227.374 152.446C194.092 152.56 163.861 193.843 126.357 193.71C163.865 193.837 194.092 152.55 227.374 152.446ZM257.14 166.408L257.139 166.409C256.938 166.406 256.738 166.403 256.539 166.401C256.739 166.403 256.939 166.405 257.14 166.408ZM74.4939 101.464C73.1543 102.228 72.0019 102.996 71.1638 103.704C68.5397 105.92 62.5833 116.435 59.7712 116.584C62.5876 116.405 68.5199 105.917 71.1521 103.704C71.9924 102.997 73.1491 102.229 74.4939 101.464ZM102.36 106.046C104.505 106.037 106.713 106.16 108.971 106.407V106.409C106.714 106.162 104.505 106.037 102.36 106.046ZM30.6902 95.964C26.5084 95.936 22.5662 97.0111 19.6111 99.6134H19.5984C22.5535 97.0072 26.5016 95.9328 30.6902 95.964Z" fill="#00A7CE"/>
<path d="M210.615 229.795C215.213 233.068 241.082 209.92 244.869 205.443C251.054 198.136 259.82 184.045 262.39 175.182C262.734 174 263.914 173.864 262.082 172.602C226.808 168.33 217.857 205.693 210.615 229.795Z" fill="#F4FDFF"/>
<path d="M113.89 230.955L126.689 236.648C138.996 239.818 151.537 242.784 164.496 242.307L168.972 226.409C151.021 232.898 132.799 233.159 113.877 230.943L113.89 230.955Z" fill="#F4FDFF"/>
</g>
</svg>
