<svg width="78" height="66" viewBox="0 0 78 66" fill="none" xmlns="http://www.w3.org/2000/svg">
<path fill-rule="evenodd" clip-rule="evenodd" d="M49.0351 4.16379C45.2719 6.44946 42.1075 8.42841 42.0029 8.56134C41.6663 8.98939 41.7703 9.7454 42.2135 10.0908C42.4338 10.2627 42.753 10.4033 42.9227 10.4033C43.17 10.4033 46.8999 8.19223 55.9745 2.66594C56.1688 2.54763 56.366 2.63459 56.8666 3.05932C58.0194 4.03749 59.828 4.34481 61.49 3.84502C61.901 3.72143 62.2524 3.63748 62.2709 3.65828C62.2893 3.67923 63.1409 5.05274 64.1633 6.71066C66.1297 9.89958 66.5363 10.4033 67.144 10.4033C67.6335 10.4033 68.269 9.77057 68.269 9.28344C68.269 8.90935 64.4534 2.5422 63.8127 1.84738C63.2458 1.2326 62.5458 1.13614 61.2549 1.49515C60.628 1.66953 59.9279 1.81227 59.6992 1.81227C59.0985 1.81227 58.3993 1.41105 57.6911 0.659863C56.6079 -0.488922 56.8694 -0.594728 49.0351 4.16379ZM5.32118 13.0936C5.06057 13.3518 4.84953 13.7576 4.79191 14.111C4.60246 15.2711 4.53677 15.4316 4.05539 15.9088C3.70356 16.2575 3.20134 16.5032 2.25546 16.7893C1.2074 17.1061 0.848725 17.293 0.471801 17.7186L0 18.2513V22.8503C0 27.9014 0.0339064 28.1147 0.907263 28.5624C1.15267 28.6881 1.73607 28.7911 2.20407 28.7911C2.90455 28.7911 3.12061 28.8564 3.42789 29.1611L3.80117 29.531V32.8605V36.1901L3.42789 36.5599C3.12061 36.8647 2.90455 36.93 2.20407 36.93C1.73607 36.93 1.15267 37.0329 0.907263 37.1586C0.0339064 37.6064 0 37.8196 0 42.8707V47.4698L0.471801 48.0024C0.845076 48.4238 1.20725 48.6148 2.20589 48.9168C4.07637 49.4823 4.56247 49.9624 4.78278 51.4613C4.85896 51.9799 5.02074 52.3297 5.32301 52.6294L5.75436 53.057H38.924H72.0936L72.5249 52.6294C72.8272 52.3297 72.989 51.9799 73.0652 51.4613C73.2856 49.9613 73.7711 49.4825 75.6472 48.9152C76.7248 48.5895 76.9963 48.4377 77.4575 47.9037L78 47.2754V42.6213C78 39.7977 77.9445 38.0013 77.8589 38.0537C77.7814 38.1012 77.6725 37.9987 77.6173 37.8261C77.4476 37.2962 76.6556 36.9312 75.6744 36.9306C74.942 36.9301 74.7302 36.8676 74.4201 36.5599L74.0468 36.1901V32.8605V29.531L74.4201 29.1611C74.7273 28.8564 74.9434 28.7911 75.6439 28.7911C76.6878 28.7911 77.256 28.5165 77.6777 27.8082C77.9872 27.2883 78 27.0831 78 22.6532C78 20.1158 77.9594 18.08 77.9097 18.1293C77.86 18.1786 77.6135 17.9864 77.3619 17.7023C77.0047 17.2992 76.6275 17.1022 75.6421 16.8042C73.7716 16.2387 73.2855 15.7587 73.0652 14.2598C72.989 13.7411 72.8272 13.3913 72.5249 13.0917L72.0936 12.6641H68.4439H64.794L64.4789 13.0612C64.0608 13.588 64.0809 14.1029 64.537 14.5549C64.9074 14.9222 64.9314 14.9249 67.8504 14.9249H70.7907L70.966 15.5654C71.4042 17.1677 72.5931 18.2834 74.4876 18.8701L75.5673 19.2044V22.8674V26.5303H75.0302C73.9119 26.5303 72.6542 27.3725 72.0568 28.5213C71.7931 29.0283 71.7664 29.4291 71.7694 32.8168C71.7723 36.1351 71.8044 36.6207 72.055 37.156C72.5953 38.3107 73.8823 39.1907 75.0302 39.1907H75.5673V42.8537V46.5166L74.4876 46.8509C72.5931 47.4377 71.4042 48.5533 70.966 50.1556L70.7907 50.7962H63.6761H56.5614V32.8605V14.9249H58.6695C60.5721 14.9249 60.8167 14.8944 61.1783 14.6124C61.6804 14.221 61.7276 13.4144 61.2749 12.9655C60.973 12.6663 60.7681 12.6641 33.3626 12.6641H5.75436L5.32118 13.0936ZM6.88194 15.5654C6.44374 17.1677 5.25489 18.2834 3.36039 18.8701L2.2807 19.2044V22.8674V26.5303L2.85088 26.5336C4.01251 26.5404 5.35098 27.4964 5.84605 28.6732C6.03747 29.1281 6.08126 29.9228 6.07853 32.8934C6.07564 36.137 6.0431 36.6217 5.79298 37.156C5.25261 38.3107 3.96568 39.1907 2.81773 39.1907H2.2807V42.8537V46.5166L3.36039 46.8509C5.25489 47.4377 6.44374 48.5533 6.88194 50.1556L7.05725 50.7962H30.6689H54.2807V49.6658V48.5354H52.1631H50.0454L49.7184 48.1233C49.3258 47.6285 49.3997 46.9408 49.8887 46.5383C50.1587 46.316 50.5296 46.2746 52.2449 46.2746H54.2807V32.8605V19.4465L36.6053 19.4416C22.9506 19.438 18.8749 19.3951 18.6885 19.2532C18.2956 18.9542 18.0794 18.4243 18.1833 18.0142C18.4051 17.1382 17.3495 17.1857 36.6012 17.1857H54.2807V16.0553V14.9249H30.6689H7.05725L6.88194 15.5654ZM8.67777 17.5828C8.36379 17.9785 8.36257 18.0344 8.36257 32.8605C8.36257 47.6867 8.36379 47.7426 8.67777 48.1382L8.99281 48.5354H27.5191C37.7085 48.5354 46.1561 48.4932 46.2914 48.4418C46.7187 48.2793 47.0034 47.5545 46.8239 47.0867C46.4985 46.2381 47.5577 46.2845 28.3915 46.2794L10.6369 46.2746L10.6781 43.3119L10.7193 40.3493L12.2942 39.7058C13.9962 39.0102 14.4679 38.6676 14.9153 37.8026C15.1808 37.2896 15.2047 36.8697 15.2047 32.7098C15.2047 26.8732 15.2197 26.9095 12.2942 25.7138L10.7193 25.0703L10.6779 22.2584L10.6366 19.4465H12.6801C13.804 19.4465 14.8344 19.4043 14.9698 19.3529C15.3411 19.2116 15.6818 18.4514 15.5707 18.0124C15.3785 17.2532 15.0797 17.1857 11.9129 17.1857H8.99281L8.67777 17.5828ZM0.0676608 22.913C0.0676608 25.5242 0.0884912 26.5924 0.113731 25.2869C0.139123 23.9812 0.139123 21.8447 0.113731 20.5392C0.0884912 19.2335 0.0676608 20.3018 0.0676608 22.913ZM59.3689 20.7925C58.5407 21.1336 58.3762 22.1333 59.0533 22.7108L59.4673 23.0637H64.3158H69.1643L69.5783 22.7108C70.1021 22.2642 70.1377 21.5333 69.6587 21.0583C69.3309 20.7332 69.2445 20.7271 64.5019 20.6964C61.849 20.6792 59.5391 20.7225 59.3689 20.7925ZM59.1061 26.4173C58.4892 26.8816 58.5605 28.1416 59.2178 28.3917C59.5537 28.5195 69.0779 28.5195 69.4138 28.3917C70.0907 28.1343 70.1364 26.725 69.4795 26.3764C69.0411 26.1438 59.419 26.1818 59.1061 26.4173ZM10.6433 32.7098C10.6433 36.7747 10.6836 37.8507 10.8333 37.7916C10.9379 37.7503 11.3313 37.5969 11.7076 37.4507C12.9974 36.9492 12.924 37.2352 12.924 32.7098C12.924 28.1844 12.9974 28.4704 11.7076 27.9689C11.3313 27.8227 10.9379 27.6693 10.8333 27.628C10.6836 27.5689 10.6433 28.6449 10.6433 32.7098ZM59.0533 32.0077C58.5293 32.4545 58.4939 33.1852 58.973 33.6602C59.3031 33.9873 59.3615 33.9909 64.3158 33.9909C69.2701 33.9909 69.3285 33.9873 69.6586 33.6602C70.1377 33.1852 70.1022 32.4545 69.5783 32.0077L69.1643 31.6548H64.3158H59.4673L59.0533 32.0077ZM59.1061 37.4198C58.4892 37.8842 58.5605 39.1442 59.2178 39.3942C59.3594 39.4482 61.6535 39.4922 64.3158 39.4922C66.9781 39.4922 69.2722 39.4482 69.4138 39.3942C70.0907 39.1368 70.1364 37.7276 69.4795 37.3789C69.0411 37.1464 59.419 37.1844 59.1061 37.4198ZM0.0676608 42.808C0.0676608 45.4192 0.0884912 46.4875 0.113731 45.1819C0.139123 43.8762 0.139123 41.7399 0.113731 40.4342C0.0884912 39.1285 0.0676608 40.1968 0.0676608 42.808ZM59.0533 43.0103C58.5293 43.457 58.4939 44.1877 58.973 44.6628C59.3031 44.9898 59.3615 44.9935 64.3158 44.9935C69.2701 44.9935 69.3285 44.9898 69.6586 44.6628C70.1377 44.1877 70.1022 43.457 69.5783 43.0103L69.1643 42.6573H64.3158H59.4673L59.0533 43.0103ZM10.4084 55.6878C10.197 55.8971 10.0351 56.2335 10.0351 56.4632C10.0351 56.8602 13.9641 63.4394 14.6365 64.1682C15.2244 64.8054 15.8367 64.8821 17.3061 64.5026C19.087 64.0426 19.5275 64.1356 20.5894 65.1968C21.922 66.5283 21.431 66.7174 29.7258 61.6748C37.0555 57.2189 37.4111 56.9582 37.173 56.2145C36.9246 55.4385 35.9854 55.0838 35.3468 55.5248C34.7623 55.9286 22.3361 63.4566 22.2543 63.4566C22.2086 63.4566 21.8957 63.2229 21.559 62.9372C20.4369 61.9851 18.6104 61.6829 16.9661 62.1775C16.5552 62.301 16.2038 62.385 16.1852 62.3642C16.1667 62.3433 15.2495 60.868 14.147 59.0857C13.0447 57.3035 12.003 55.7265 11.8323 55.5815C11.3976 55.2121 10.8467 55.2532 10.4084 55.6878ZM19.8353 55.6878C19.63 55.8912 19.462 56.2109 19.462 56.3984C19.462 56.8311 21.4862 60.2018 21.932 60.5114C22.116 60.6391 22.3992 60.7437 22.5615 60.7437C22.7237 60.7437 24.1202 59.9807 25.6649 59.0481C28.5398 57.3124 28.9655 56.922 28.7742 56.1971C28.676 55.8243 28.0163 55.3178 27.6292 55.3178C27.4606 55.3178 26.3815 55.8943 25.2311 56.5989C24.0807 57.3035 23.0725 57.88 22.9905 57.88C22.9087 57.88 22.5589 57.4082 22.2133 56.8316C21.2782 55.2713 20.5894 54.94 19.8353 55.6878Z" fill="#00395C"/>
</svg>
