<svg width="71" height="70" viewBox="0 0 71 70" fill="none" xmlns="http://www.w3.org/2000/svg">
<path fill-rule="evenodd" clip-rule="evenodd" d="M33.4917 0.308765C32.8138 0.540412 28.8053 3.06179 17.2308 10.5371C8.78212 15.9937 1.63699 20.6962 1.3527 20.9872C0.174301 22.1936 -0.296007 24.1378 0.188834 25.7985C0.476997 26.7852 2.39311 29.69 3.14895 30.286C4.09607 31.0329 4.91502 31.3216 6.12069 31.3338L7.19237 31.3445L7.19334 46.7319L7.19431 62.1193L5.0144 62.1658C2.89746 62.211 2.81303 62.2243 2.09276 62.6214C0.605301 63.4417 -0.0921329 64.727 0.0298038 66.4235C0.109388 67.5297 0.526962 68.3426 1.39644 69.0835C2.55989 70.075 -0.296007 69.9983 35.4294 69.9983C71.35 69.9983 68.3139 70.0852 69.5275 69.0218C69.8678 68.7235 70.2806 68.1855 70.4447 67.8264C70.6087 67.4671 70.8008 67.0657 70.8716 66.9341C71.0327 66.634 71.0421 64.9952 70.8821 65.0936C70.8173 65.1336 70.6941 64.9328 70.6083 64.6477C70.3916 63.9276 69.6444 63.1059 68.766 62.6214C68.0457 62.2243 67.9613 62.211 65.8443 62.1658L63.6644 62.1193L63.6654 46.7319L63.6664 31.3445L64.7512 31.335C66.1506 31.3227 67.1246 30.8962 67.3153 30.2119C67.41 29.8725 67.3841 29.6851 67.2053 29.4135C66.8609 28.8901 66.411 28.7663 65.7268 29.0067C65.068 29.2382 64.1196 29.2693 63.6096 29.0763C63.4174 29.0034 57.1647 25.0072 49.7148 20.1958C42.2649 15.3844 36.0029 11.3723 35.7995 11.28C35.5109 11.149 35.3491 11.1485 35.0652 11.2773C34.8648 11.3682 28.6034 15.3802 21.1509 20.1928C13.6983 25.0054 7.44303 29.0028 7.25009 29.0759C6.63819 29.3075 5.63308 29.2291 4.97454 28.8985C4.50008 28.6602 4.17011 28.317 3.55074 27.4171C2.38051 25.7169 2.17027 25.2593 2.15726 24.3843C2.14854 23.7955 2.22965 23.4835 2.51878 22.9921C2.86618 22.4021 3.93095 21.6877 18.1903 12.4793C26.6047 7.04541 33.7189 2.50397 33.9996 2.38711C34.6652 2.11026 36.1996 2.11288 36.8706 2.39193C37.1577 2.51141 44.2714 7.05202 52.6789 12.4823C66.9336 21.6892 67.9903 22.3982 68.3384 22.9895C68.8565 23.8698 68.8546 24.8876 68.3329 25.8153C67.764 26.8268 67.8362 27.4605 68.5542 27.7611C69.3726 28.1038 70.091 27.4913 70.5891 26.0265C70.7165 25.6514 70.8612 25.3046 70.9105 25.2555C70.9597 25.2065 71 24.7323 71 24.2018C71 23.6712 70.959 23.2778 70.9091 23.3277C70.8591 23.3774 70.7139 23.1117 70.5867 22.7373C70.2478 21.7405 69.6691 20.9915 68.7232 20.3251C67.9321 19.7677 40.1273 1.79208 38.7078 0.920335C37.1613 -0.0295421 35.1664 -0.263394 33.4917 0.308765ZM22.2807 22.014L9.33962 30.3817L9.30447 46.2627L9.26931 62.1435H35.4294H61.5894L61.5543 46.2632L61.5191 30.3829L48.578 22.0137C41.4605 17.4107 35.5436 13.6449 35.4294 13.6455C35.3152 13.6459 29.3983 17.4118 22.2807 22.014ZM0.0436445 24.3855C0.0436445 24.9539 0.0681426 25.1865 0.0979001 24.9022C0.127796 24.6181 0.127796 24.153 0.0979001 23.8687C0.0681426 23.5845 0.0436445 23.817 0.0436445 24.3855ZM44.149 25.7203C43.4431 25.8368 41.9803 26.3505 41.24 26.7419C38.8716 27.9944 36.9781 30.3934 36.3024 32.9981C35.9434 34.3822 35.9386 39.4694 36.2951 40.784C37.0565 43.5915 39.0882 46.0726 41.6047 47.2685L42.4813 47.6851L42.4116 48.2652C42.2279 49.7922 41.7962 55.3582 41.7975 56.1831C41.7998 57.8022 42.5875 59.071 44.0383 59.7929C46.4309 60.9833 49.2259 59.6319 49.8187 56.9978C49.9247 56.5268 49.8752 55.3974 49.6144 52.3396C49.4251 50.1196 49.2701 48.1433 49.2701 47.9476C49.2701 47.6655 49.3713 47.5553 49.7584 47.4159C50.5848 47.1184 52.2641 45.9132 53.0366 45.0634C54.0029 44.0001 54.7291 42.7603 55.1798 41.4041C55.5172 40.3888 55.5509 40.0763 55.6054 37.4489C55.6776 33.965 55.5142 32.9432 54.5745 31.0068C53.3837 28.5522 50.9437 26.5918 48.215 25.8969C47.2124 25.6417 45.1651 25.5526 44.149 25.7203ZM17.161 27.039C16.4937 27.262 15.598 28.1942 15.3922 28.88C15.2763 29.266 15.2219 30.5997 15.2219 33.0548V36.6625L15.5617 37.0006C15.9919 37.4291 16.483 37.431 16.9789 37.0066L17.3672 36.6742L17.4106 33.0484C17.438 30.762 17.5081 29.3575 17.6006 29.2466C17.81 28.9952 18.6132 29.0287 18.8382 29.2983C18.9867 29.4763 19.0432 30.4623 19.0973 33.8225L19.1665 38.119L19.5657 38.6397C20.4911 39.8468 22.222 40.0222 23.3016 39.0182C24.1701 38.2105 24.212 37.9586 24.2153 33.5247C24.2187 29.1087 24.2259 29.0708 25.0509 29.0708C25.8454 29.0708 25.8793 29.2593 25.8793 33.6743C25.8793 37.4597 25.8944 37.6964 26.1728 38.2691C26.608 39.1641 27.3648 39.6127 28.4398 39.6127C29.5148 39.6127 30.2716 39.1641 30.7068 38.2691C30.9857 37.6956 31.0003 37.4612 31.0003 33.5961C31.0003 29.8289 31.0192 29.5099 31.2535 29.2988C31.5877 28.9976 32.1469 29.009 32.4322 29.3228C32.6363 29.5474 32.6609 30.1055 32.6591 34.456C32.6569 39.9234 32.5966 40.4241 31.7457 42.0362C30.8812 43.6742 29.4186 44.9403 27.6316 45.5978C26.0094 46.1947 26.0765 45.8293 26.554 51.4689C26.7784 54.1188 26.9278 56.4638 26.8862 56.68C26.7817 57.2219 25.9865 57.9769 25.4059 58.0853C24.4681 58.2605 23.3907 57.5836 23.1617 56.6755C23.1135 56.4839 23.2392 54.3958 23.441 52.0352C23.879 46.9123 23.8893 46.4109 23.561 46.1362C23.4277 46.0247 22.8598 45.7587 22.2987 45.545C20.2263 44.7555 18.5048 42.9435 17.7863 40.7956C17.3701 39.5512 17.1926 39.3509 16.5061 39.3509C15.3646 39.3509 15.2179 40.5207 16.1217 42.4157C17.1672 44.6075 18.712 46.2281 20.6359 47.1514C21.4325 47.5338 21.5821 47.6603 21.5852 47.9543C21.5871 48.1463 21.4336 50.1196 21.2443 52.3396C20.8795 56.6175 20.8947 57.0631 21.4435 58.134C21.742 58.7168 22.5949 59.5317 23.2758 59.8852C23.5435 60.0241 24.1738 60.1489 24.7918 60.1855C25.7042 60.2393 25.9517 60.2013 26.5911 59.9086C27.6456 59.426 28.1551 58.9467 28.6394 57.9818C28.9745 57.3143 29.0626 56.9611 29.0626 56.2867C29.0626 55.5112 28.6131 49.6562 28.4466 48.2638L28.377 47.6822L29.3696 47.1862C31.3208 46.2113 32.8243 44.7082 33.7751 42.7822C34.7546 40.7981 34.7798 40.6143 34.8436 34.9963C34.909 29.2502 34.8604 28.8092 34.0669 27.9328C32.572 26.2819 30.2348 26.5939 29.1537 28.5884C28.8698 29.1124 28.8528 29.3457 28.8098 33.3082L28.7645 37.4767H28.444C28.2676 37.4767 28.0856 37.3786 28.0394 37.2587C27.9932 37.1389 27.954 35.2631 27.9523 33.0902C27.9489 28.6593 27.909 28.4403 26.951 27.6027C25.5734 26.3986 23.396 26.761 22.4574 28.351L22.0731 29.0019L22.0039 33.2048L21.9347 37.4078H21.5887H21.2426L21.1734 33.1255L21.1042 28.8432L20.7224 28.2692C20.1621 27.4266 19.4215 26.9898 18.4492 26.9285C18.0063 26.9005 17.4268 26.9502 17.161 27.039ZM44.6959 27.8342C41.6108 28.3053 39.1302 30.5913 38.4119 33.6256C38.1224 34.8486 38.1214 38.9982 38.4102 40.2186C38.9921 42.6761 40.8922 44.7806 43.3053 45.6402C44.8376 46.1862 44.7804 45.8505 44.3025 51.4924C44.0769 54.1553 43.9276 56.4784 43.9706 56.6549C44.2238 57.6947 45.3317 58.3335 46.3533 58.0287C46.9394 57.8538 47.5563 57.2337 47.6963 56.6784C47.7441 56.4885 47.6182 54.4003 47.4164 52.0381C47.2146 49.6759 47.0509 47.4271 47.0525 47.041C47.0561 46.2128 47.2255 46.02 48.2378 45.6922C50.5941 44.9293 52.5851 42.8238 53.2104 40.4337C53.5049 39.3076 53.5089 34.5586 53.2162 33.4395C52.5445 30.8718 50.4661 28.7764 47.8788 28.0582C46.8705 27.7783 45.6329 27.6912 44.6959 27.8342ZM40.9151 39.416C39.8955 40.2145 41.2744 42.2577 43.5326 43.2942C44.1206 43.5642 44.4447 43.609 45.8099 43.609C47.3119 43.609 47.454 43.5843 48.3321 43.1701C49.424 42.6551 50.4865 41.7154 50.9405 40.8633C51.2123 40.3533 51.2381 40.2019 51.1036 39.9079C50.7379 39.109 49.8157 38.9348 49.3001 39.5672C48.0388 41.1146 47.3324 41.5198 45.8791 41.5295C44.4157 41.5393 43.6815 41.1394 42.4037 39.6367C41.9047 39.0498 41.4657 38.9847 40.9151 39.416ZM2.88957 64.6635C1.62882 65.5081 2.03671 67.4525 3.5477 67.8017C4.2515 67.9643 66.6072 67.9643 67.311 67.8017C68.822 67.4525 69.2299 65.5081 67.9692 64.6635L67.4989 64.3484H35.4294H3.35988L2.88957 64.6635ZM0.0425373 66.0709C0.0432293 66.6014 0.0681426 66.8015 0.0981769 66.5157C0.128073 66.2298 0.127658 65.7957 0.0970697 65.5511C0.0664817 65.3064 0.0419836 65.5404 0.0425373 66.0709Z" fill="#00395C"/>
</svg>
