<svg width="71" height="69" viewBox="0 0 71 69" fill="none" xmlns="http://www.w3.org/2000/svg">
<mask id="path-1-outside-1_935_2286" maskUnits="userSpaceOnUse" x="-0.700012" y="-0.700012" width="72" height="70" fill="black">
<rect fill="white" x="-0.700012" y="-0.700012" width="72" height="70"/>
<path fill-rule="evenodd" clip-rule="evenodd" d="M9.57726 0.49178C8.61256 0.831355 7.9589 1.37776 7.44443 2.27442C7.07241 2.92315 7.02032 3.13971 7.02333 4.02839C7.02812 5.42671 7.37757 6.02935 9.23149 7.83699C10.865 9.4297 11.4937 9.82199 12.5921 9.93406C14.141 10.0921 15.5363 9.34075 16.3152 7.92959C16.8406 6.97751 16.8808 5.65841 16.4153 4.65077C16.0169 3.78858 13.2178 1.01358 12.3746 0.644805C11.4641 0.246561 10.4337 0.19019 9.57726 0.49178ZM54.5744 0.430407C53.6457 0.729699 53.1639 1.09496 51.5745 2.70416C49.9034 4.39622 49.6057 4.94371 49.6112 6.31674C49.6164 7.62584 50.4606 8.94115 51.7273 9.61368C52.5146 10.0317 54.2281 10.0267 55.0339 9.60395C55.7227 9.24274 57.9019 7.21989 58.5442 6.34567C59.3349 5.26949 59.5393 4.15303 59.1789 2.8803C58.9538 2.08557 57.8863 0.897053 57.1279 0.597086C56.3404 0.285493 55.2456 0.214117 54.5744 0.430407ZM31.8379 2.47922C30.8335 2.75755 30.0921 3.20582 29.3896 3.95932C28.5988 4.80758 27.0557 7.17285 26.1889 8.86532C25.7009 9.81821 25.3911 10.2726 25.2037 10.3107C25.0533 10.3412 24.3173 10.4625 23.5682 10.5802C22.5678 10.7373 22.1232 10.8713 21.8934 11.0847C21.4634 11.484 21.4778 12.1318 21.9257 12.5479L22.2709 12.8684L24.0107 12.6216C24.9676 12.4857 25.8822 12.3258 26.043 12.2661C26.7054 12.0199 27.3479 11.2583 28.0734 9.85836C28.9488 8.16981 30.2231 6.189 30.9361 5.40886C31.9259 4.32552 33.6996 4.10301 34.867 4.91572C35.5703 5.40549 37.0144 7.47281 38.0712 9.50324C39.4071 12.0694 39.5165 12.1564 41.9043 12.5539C43.7061 12.8538 45.8688 13.3759 46.9203 13.765C47.6948 14.0514 48.3962 14.64 48.7589 15.3078C49.0949 15.9261 49.0591 17.3378 48.6904 18.0197C48.2687 18.7991 46.7383 20.6429 45.2047 22.2185C44.4746 22.9686 43.8133 23.749 43.735 23.9528C43.5386 24.4633 43.5602 25.3705 43.8029 26.8064C43.916 27.4756 44.0474 28.9176 44.095 30.0108C44.1688 31.7087 44.1469 32.0876 43.945 32.6105C43.4209 33.9671 41.7889 34.8062 40.357 34.4551C39.352 34.2087 36.7136 33.1433 35.1975 32.3717C33.2905 31.4011 33.0292 31.4165 30.5064 32.6483C27.9692 33.887 25.714 34.639 24.877 34.5256C23.6066 34.3533 22.561 33.408 22.2862 32.1833C22.1231 31.456 22.3193 27.8579 22.6015 26.4009C23.0125 24.28 22.9128 24.0039 21.0483 22.0923C19.3303 20.3309 17.9488 18.6462 17.5975 17.8845C17.2937 17.2253 17.2698 16.0871 17.5463 15.4331C17.6584 15.1677 18.0275 14.6801 18.3666 14.3498C18.861 13.8677 18.9829 13.6564 18.9829 13.282C18.9829 12.6632 18.5838 12.2745 17.9486 12.2745C17.5424 12.2745 17.3421 12.3927 16.747 12.9842C15.1982 14.5232 14.7416 16.8193 15.6134 18.6839C16.0552 19.629 17.6746 21.6641 19.312 23.332L20.6786 24.7241L20.4315 26.3736C20.0559 28.8797 19.9822 31.886 20.2714 32.8931C20.5823 33.9752 21.3255 35.0214 22.247 35.6738C23.9215 36.8595 25.6464 36.9138 28.4166 35.8682C29.3565 35.5133 30.7766 34.8957 31.5725 34.4957C32.3682 34.0956 33.1065 33.769 33.2131 33.7699C33.3196 33.7708 33.6837 33.929 34.0221 34.1214C35.0504 34.7063 37.2907 35.6639 38.7954 36.1618C40.0526 36.5779 40.3486 36.6272 41.3247 36.5834C43.8293 36.4712 45.769 34.7658 46.2104 32.288C46.3872 31.2954 46.1832 27.8387 45.8446 26.0884C45.7338 25.5168 45.6433 24.9842 45.6433 24.9047C45.6433 24.8254 46.1854 24.2157 46.8479 23.5499C48.4264 21.9638 50.2469 19.6956 50.6903 18.7632C51.0004 18.1109 51.0437 17.8454 51.0433 16.6003C51.0429 15.3009 51.0092 15.1149 50.6441 14.4014C50.1757 13.4859 49.0342 12.3671 48.1938 11.9994C47.2052 11.567 44.4333 10.8281 42.9089 10.5906C42.1194 10.4678 41.3402 10.3401 41.1773 10.3072C40.9615 10.2635 40.6571 9.82524 40.0535 8.68904C39.1465 6.9817 37.7468 4.82407 36.9668 3.93079C35.8479 2.64954 33.5597 2.00189 31.8379 2.47922ZM9.8656 2.66982C9.29808 3.01197 9.13907 3.32815 9.13907 4.11437C9.13907 4.75553 9.14727 4.76702 10.6837 6.28619L12.2284 7.81347H12.9091C13.6769 7.81347 14.0985 7.58434 14.4036 7.00089C14.7245 6.38731 14.6593 5.7598 14.2129 5.16392C13.7675 4.56925 12.1177 2.966 11.6037 2.62832C11.1506 2.33065 10.3985 2.34863 9.8656 2.66982ZM54.8719 2.56195C54.2974 2.87178 51.9297 5.31681 51.7853 5.74912C51.4576 6.73134 52.282 7.81347 53.358 7.81347C54.0737 7.81347 54.6059 7.45281 55.9963 6.02489C57.2893 4.69714 57.4859 4.19237 57.0572 3.29936C56.6908 2.53613 55.6014 2.16843 54.8719 2.56195ZM5.64027 22.3849C2.93362 23.3276 2.21051 26.7257 4.3093 28.6386C5.39089 29.6244 5.49535 29.6453 9.34415 29.6453C12.5386 29.6453 12.8023 29.6266 13.3774 29.3595C15.7984 28.2346 16.3908 25.1313 14.535 23.2962C13.5192 22.2919 13.1752 22.2146 9.54923 22.1763C6.7518 22.1469 6.24621 22.1739 5.64027 22.3849ZM53.2313 22.377C52.3146 22.6831 51.2404 23.7377 50.9311 24.635C50.2848 26.5104 51.0703 28.3968 52.8588 29.2653C53.635 29.6421 53.6662 29.6457 56.6844 29.6884C59.1481 29.7232 59.8687 29.6908 60.4694 29.5182C63.1314 28.7531 64.1437 25.5551 62.3716 23.5082C62.1025 23.1972 61.5663 22.7783 61.1799 22.5769C60.4787 22.2116 60.4714 22.2108 57.1962 22.1797C54.4195 22.1535 53.8097 22.1838 53.2313 22.377ZM5.96115 24.5428C5.04048 25.1072 4.9538 26.354 5.78273 27.1106L6.26399 27.5499H9.28687C11.8398 27.5499 12.3687 27.5156 12.6883 27.3288C13.4589 26.8788 13.7274 25.9165 13.3067 25.1122C12.918 24.369 12.601 24.3052 9.31681 24.3092C6.7529 24.3122 6.28381 24.3449 5.96115 24.5428ZM53.459 24.6454C52.6 25.3601 52.6493 26.6354 53.5591 27.2408C54.0072 27.5389 54.128 27.5499 56.9498 27.5499C60.0779 27.5499 60.4237 27.4879 60.8792 26.8447C61.0001 26.6741 61.0927 26.2644 61.0927 25.8998C61.0927 25.3797 61.0161 25.1713 60.694 24.8147L60.2953 24.3732L57.0895 24.3326L53.8838 24.2919L53.459 24.6454ZM54.5751 35.3786C53.6461 35.7131 52.7445 36.3371 52.1642 37.0471C51.5785 37.7637 51.3973 38.1042 51.1038 39.0404L50.8707 39.7838L48.3595 40.1365C45.7609 40.5015 42.3392 41.1147 41.5931 41.3491C41.3544 41.4241 38.9711 41.5024 36.1927 41.5263C31.3516 41.5682 29.2448 41.7126 26.9095 42.1624L26.1544 42.3078L23.765 41.2979C16.3727 38.1736 14.9726 37.7511 13.0679 38.0703C9.98974 38.586 7.72717 40.855 7.53562 43.6183L7.45933 44.718L6.48766 44.7208C4.77798 44.7258 2.81796 45.626 1.66213 46.9371C1.39443 47.2407 0.983041 47.8846 0.748019 48.3679C0.352898 49.1802 0.320633 49.3536 0.320633 50.6659C0.320633 51.9757 0.353719 52.1543 0.748293 52.9778C1.24869 54.022 2.222 55.0838 4.80669 57.4055C11.5602 63.4718 17.1734 66.9423 22.0591 68.0724C24.2608 68.5818 30.826 68.2014 35.7995 67.2766C39.4413 66.5994 42.2827 65.7016 45.3015 64.2748L47.3523 63.3054L49.3348 63.2635L51.3172 63.2214L51.5008 63.6381C51.8597 64.452 52.9956 65.5061 54.0908 66.0416L55.1303 66.5498L60.1578 66.5925C64.4234 66.6287 65.315 66.6023 66.041 66.4185C67.6759 66.0044 68.9617 64.9554 69.7338 63.406L70.1845 62.5015L70.2287 59.7642L70.273 57.027L69.9274 56.6853C69.5156 56.2781 69.0356 56.248 68.5933 56.6016C68.2798 56.8522 68.2684 56.9332 68.1995 59.4066C68.1298 61.914 68.1223 61.9649 67.7245 62.6795C67.5022 63.0788 67.1309 63.5483 66.8994 63.723C65.9465 64.4416 65.8373 64.4544 60.6686 64.4544C57.3789 64.4544 55.6913 64.4043 55.324 64.2955C54.622 64.0876 53.599 63.1872 53.283 62.4996C53.0463 61.9843 53.0321 61.3299 53.0306 50.8687L53.0289 39.7838L53.3517 39.0983C53.5292 38.7213 53.9132 38.2174 54.2049 37.9785C55.1779 37.1815 55.6065 37.1301 60.9112 37.175C65.5001 37.2139 65.693 37.2261 66.229 37.5098C66.5349 37.6716 67.0083 38.0483 67.2809 38.3466C68.1789 39.3295 68.2021 39.5378 68.2021 46.6201C68.2021 52.5877 68.2162 52.9512 68.4579 53.2464C68.7706 53.6282 69.5921 53.6752 69.94 53.3315C70.3045 52.9711 70.349 51.852 70.2619 45.2587L70.1807 39.1079L69.7968 38.3309C69.233 37.1894 68.2141 36.1557 67.135 35.6303L66.2261 35.1877L60.7541 35.1558C55.6884 35.1262 55.2296 35.1428 54.5751 35.3786ZM12.5679 40.3361C11.3198 40.7843 10.3131 41.655 9.87914 42.6614C9.6381 43.2208 9.59066 44.6973 9.80148 45.0796C9.8842 45.2298 11.1594 45.8258 13.0588 46.602C14.7755 47.3037 17.0415 48.2676 18.0942 48.7441C19.147 49.2205 20.3239 49.7525 20.7097 49.9264L21.4109 50.2426L21.3445 49.4066C21.2073 47.6841 21.9188 45.6876 23.1496 44.3409C23.509 43.9477 23.7797 43.6084 23.7514 43.5868C23.641 43.503 20.2875 42.1169 17.9515 41.1896C15.6922 40.2925 15.404 40.2112 14.3344 40.167C13.5065 40.1328 12.9985 40.1814 12.5679 40.3361ZM49.4715 42.0957C46.8258 42.4679 44.5701 42.8529 42.8405 43.2272C41.0953 43.605 40.988 43.6118 36.8932 43.6018C31.2825 43.5881 27.6205 43.947 26.1436 44.6555C25.3005 45.06 24.2691 46.1133 23.8609 46.9867C23.6177 47.5073 23.563 47.8726 23.563 48.9762C23.563 50.1855 23.6036 50.4098 23.9489 51.1047C24.2383 51.6878 24.5243 52.0159 25.0947 52.4197C26.1745 53.1844 27.0482 53.4643 28.8801 53.6329C32.0725 53.9267 38.8055 53.7835 41.4733 53.3651C42.8646 53.1469 43.2636 53.1895 43.5825 53.5906C43.9383 54.0376 43.9427 54.4535 43.5962 54.8889C43.3098 55.2489 42.7827 55.3631 39.9694 55.6747C36.3872 56.0714 28.5797 55.9414 26.6846 55.4533C25.5982 55.1734 24.5529 54.6504 23.5283 53.8741C22.1388 52.8211 15.9701 49.9726 9.82267 47.5454C8.0933 46.8626 7.90367 46.8168 6.81483 46.8188C5.85328 46.8207 5.52009 46.882 4.88435 47.1734C3.2314 47.9314 2.37964 49.1228 2.38866 50.6647C2.39632 51.9786 2.74003 52.5565 4.53653 54.2757C11.2776 60.7264 17.4949 64.8023 22.3572 65.9583C23.4504 66.2183 23.812 66.2375 26.2291 66.1643C30.5464 66.0335 34.7207 65.4734 38.4825 64.5201C40.7419 63.9476 42.4873 63.3043 44.7546 62.2085C46.727 61.2554 47.4832 61.0776 49.574 61.076L50.8387 61.0749V51.477C50.8387 46.1982 50.8232 41.8867 50.8045 41.8961C50.7858 41.9054 50.1858 41.9951 49.4715 42.0957ZM0.299988 50.6659C0.299988 51.2979 0.32364 51.5564 0.352352 51.2405C0.381199 50.9245 0.381199 50.4073 0.352352 50.0914C0.32364 49.7755 0.299988 50.034 0.299988 50.6659Z"/>
</mask>
<path fill-rule="evenodd" clip-rule="evenodd" d="M9.57726 0.49178C8.61256 0.831355 7.9589 1.37776 7.44443 2.27442C7.07241 2.92315 7.02032 3.13971 7.02333 4.02839C7.02812 5.42671 7.37757 6.02935 9.23149 7.83699C10.865 9.4297 11.4937 9.82199 12.5921 9.93406C14.141 10.0921 15.5363 9.34075 16.3152 7.92959C16.8406 6.97751 16.8808 5.65841 16.4153 4.65077C16.0169 3.78858 13.2178 1.01358 12.3746 0.644805C11.4641 0.246561 10.4337 0.19019 9.57726 0.49178ZM54.5744 0.430407C53.6457 0.729699 53.1639 1.09496 51.5745 2.70416C49.9034 4.39622 49.6057 4.94371 49.6112 6.31674C49.6164 7.62584 50.4606 8.94115 51.7273 9.61368C52.5146 10.0317 54.2281 10.0267 55.0339 9.60395C55.7227 9.24274 57.9019 7.21989 58.5442 6.34567C59.3349 5.26949 59.5393 4.15303 59.1789 2.8803C58.9538 2.08557 57.8863 0.897053 57.1279 0.597086C56.3404 0.285493 55.2456 0.214117 54.5744 0.430407ZM31.8379 2.47922C30.8335 2.75755 30.0921 3.20582 29.3896 3.95932C28.5988 4.80758 27.0557 7.17285 26.1889 8.86532C25.7009 9.81821 25.3911 10.2726 25.2037 10.3107C25.0533 10.3412 24.3173 10.4625 23.5682 10.5802C22.5678 10.7373 22.1232 10.8713 21.8934 11.0847C21.4634 11.484 21.4778 12.1318 21.9257 12.5479L22.2709 12.8684L24.0107 12.6216C24.9676 12.4857 25.8822 12.3258 26.043 12.2661C26.7054 12.0199 27.3479 11.2583 28.0734 9.85836C28.9488 8.16981 30.2231 6.189 30.9361 5.40886C31.9259 4.32552 33.6996 4.10301 34.867 4.91572C35.5703 5.40549 37.0144 7.47281 38.0712 9.50324C39.4071 12.0694 39.5165 12.1564 41.9043 12.5539C43.7061 12.8538 45.8688 13.3759 46.9203 13.765C47.6948 14.0514 48.3962 14.64 48.7589 15.3078C49.0949 15.9261 49.0591 17.3378 48.6904 18.0197C48.2687 18.7991 46.7383 20.6429 45.2047 22.2185C44.4746 22.9686 43.8133 23.749 43.735 23.9528C43.5386 24.4633 43.5602 25.3705 43.8029 26.8064C43.916 27.4756 44.0474 28.9176 44.095 30.0108C44.1688 31.7087 44.1469 32.0876 43.945 32.6105C43.4209 33.9671 41.7889 34.8062 40.357 34.4551C39.352 34.2087 36.7136 33.1433 35.1975 32.3717C33.2905 31.4011 33.0292 31.4165 30.5064 32.6483C27.9692 33.887 25.714 34.639 24.877 34.5256C23.6066 34.3533 22.561 33.408 22.2862 32.1833C22.1231 31.456 22.3193 27.8579 22.6015 26.4009C23.0125 24.28 22.9128 24.0039 21.0483 22.0923C19.3303 20.3309 17.9488 18.6462 17.5975 17.8845C17.2937 17.2253 17.2698 16.0871 17.5463 15.4331C17.6584 15.1677 18.0275 14.6801 18.3666 14.3498C18.861 13.8677 18.9829 13.6564 18.9829 13.282C18.9829 12.6632 18.5838 12.2745 17.9486 12.2745C17.5424 12.2745 17.3421 12.3927 16.747 12.9842C15.1982 14.5232 14.7416 16.8193 15.6134 18.6839C16.0552 19.629 17.6746 21.6641 19.312 23.332L20.6786 24.7241L20.4315 26.3736C20.0559 28.8797 19.9822 31.886 20.2714 32.8931C20.5823 33.9752 21.3255 35.0214 22.247 35.6738C23.9215 36.8595 25.6464 36.9138 28.4166 35.8682C29.3565 35.5133 30.7766 34.8957 31.5725 34.4957C32.3682 34.0956 33.1065 33.769 33.2131 33.7699C33.3196 33.7708 33.6837 33.929 34.0221 34.1214C35.0504 34.7063 37.2907 35.6639 38.7954 36.1618C40.0526 36.5779 40.3486 36.6272 41.3247 36.5834C43.8293 36.4712 45.769 34.7658 46.2104 32.288C46.3872 31.2954 46.1832 27.8387 45.8446 26.0884C45.7338 25.5168 45.6433 24.9842 45.6433 24.9047C45.6433 24.8254 46.1854 24.2157 46.8479 23.5499C48.4264 21.9638 50.2469 19.6956 50.6903 18.7632C51.0004 18.1109 51.0437 17.8454 51.0433 16.6003C51.0429 15.3009 51.0092 15.1149 50.6441 14.4014C50.1757 13.4859 49.0342 12.3671 48.1938 11.9994C47.2052 11.567 44.4333 10.8281 42.9089 10.5906C42.1194 10.4678 41.3402 10.3401 41.1773 10.3072C40.9615 10.2635 40.6571 9.82524 40.0535 8.68904C39.1465 6.9817 37.7468 4.82407 36.9668 3.93079C35.8479 2.64954 33.5597 2.00189 31.8379 2.47922ZM9.8656 2.66982C9.29808 3.01197 9.13907 3.32815 9.13907 4.11437C9.13907 4.75553 9.14727 4.76702 10.6837 6.28619L12.2284 7.81347H12.9091C13.6769 7.81347 14.0985 7.58434 14.4036 7.00089C14.7245 6.38731 14.6593 5.7598 14.2129 5.16392C13.7675 4.56925 12.1177 2.966 11.6037 2.62832C11.1506 2.33065 10.3985 2.34863 9.8656 2.66982ZM54.8719 2.56195C54.2974 2.87178 51.9297 5.31681 51.7853 5.74912C51.4576 6.73134 52.282 7.81347 53.358 7.81347C54.0737 7.81347 54.6059 7.45281 55.9963 6.02489C57.2893 4.69714 57.4859 4.19237 57.0572 3.29936C56.6908 2.53613 55.6014 2.16843 54.8719 2.56195ZM5.64027 22.3849C2.93362 23.3276 2.21051 26.7257 4.3093 28.6386C5.39089 29.6244 5.49535 29.6453 9.34415 29.6453C12.5386 29.6453 12.8023 29.6266 13.3774 29.3595C15.7984 28.2346 16.3908 25.1313 14.535 23.2962C13.5192 22.2919 13.1752 22.2146 9.54923 22.1763C6.7518 22.1469 6.24621 22.1739 5.64027 22.3849ZM53.2313 22.377C52.3146 22.6831 51.2404 23.7377 50.9311 24.635C50.2848 26.5104 51.0703 28.3968 52.8588 29.2653C53.635 29.6421 53.6662 29.6457 56.6844 29.6884C59.1481 29.7232 59.8687 29.6908 60.4694 29.5182C63.1314 28.7531 64.1437 25.5551 62.3716 23.5082C62.1025 23.1972 61.5663 22.7783 61.1799 22.5769C60.4787 22.2116 60.4714 22.2108 57.1962 22.1797C54.4195 22.1535 53.8097 22.1838 53.2313 22.377ZM5.96115 24.5428C5.04048 25.1072 4.9538 26.354 5.78273 27.1106L6.26399 27.5499H9.28687C11.8398 27.5499 12.3687 27.5156 12.6883 27.3288C13.4589 26.8788 13.7274 25.9165 13.3067 25.1122C12.918 24.369 12.601 24.3052 9.31681 24.3092C6.7529 24.3122 6.28381 24.3449 5.96115 24.5428ZM53.459 24.6454C52.6 25.3601 52.6493 26.6354 53.5591 27.2408C54.0072 27.5389 54.128 27.5499 56.9498 27.5499C60.0779 27.5499 60.4237 27.4879 60.8792 26.8447C61.0001 26.6741 61.0927 26.2644 61.0927 25.8998C61.0927 25.3797 61.0161 25.1713 60.694 24.8147L60.2953 24.3732L57.0895 24.3326L53.8838 24.2919L53.459 24.6454ZM54.5751 35.3786C53.6461 35.7131 52.7445 36.3371 52.1642 37.0471C51.5785 37.7637 51.3973 38.1042 51.1038 39.0404L50.8707 39.7838L48.3595 40.1365C45.7609 40.5015 42.3392 41.1147 41.5931 41.3491C41.3544 41.4241 38.9711 41.5024 36.1927 41.5263C31.3516 41.5682 29.2448 41.7126 26.9095 42.1624L26.1544 42.3078L23.765 41.2979C16.3727 38.1736 14.9726 37.7511 13.0679 38.0703C9.98974 38.586 7.72717 40.855 7.53562 43.6183L7.45933 44.718L6.48766 44.7208C4.77798 44.7258 2.81796 45.626 1.66213 46.9371C1.39443 47.2407 0.983041 47.8846 0.748019 48.3679C0.352898 49.1802 0.320633 49.3536 0.320633 50.6659C0.320633 51.9757 0.353719 52.1543 0.748293 52.9778C1.24869 54.022 2.222 55.0838 4.80669 57.4055C11.5602 63.4718 17.1734 66.9423 22.0591 68.0724C24.2608 68.5818 30.826 68.2014 35.7995 67.2766C39.4413 66.5994 42.2827 65.7016 45.3015 64.2748L47.3523 63.3054L49.3348 63.2635L51.3172 63.2214L51.5008 63.6381C51.8597 64.452 52.9956 65.5061 54.0908 66.0416L55.1303 66.5498L60.1578 66.5925C64.4234 66.6287 65.315 66.6023 66.041 66.4185C67.6759 66.0044 68.9617 64.9554 69.7338 63.406L70.1845 62.5015L70.2287 59.7642L70.273 57.027L69.9274 56.6853C69.5156 56.2781 69.0356 56.248 68.5933 56.6016C68.2798 56.8522 68.2684 56.9332 68.1995 59.4066C68.1298 61.914 68.1223 61.9649 67.7245 62.6795C67.5022 63.0788 67.1309 63.5483 66.8994 63.723C65.9465 64.4416 65.8373 64.4544 60.6686 64.4544C57.3789 64.4544 55.6913 64.4043 55.324 64.2955C54.622 64.0876 53.599 63.1872 53.283 62.4996C53.0463 61.9843 53.0321 61.3299 53.0306 50.8687L53.0289 39.7838L53.3517 39.0983C53.5292 38.7213 53.9132 38.2174 54.2049 37.9785C55.1779 37.1815 55.6065 37.1301 60.9112 37.175C65.5001 37.2139 65.693 37.2261 66.229 37.5098C66.5349 37.6716 67.0083 38.0483 67.2809 38.3466C68.1789 39.3295 68.2021 39.5378 68.2021 46.6201C68.2021 52.5877 68.2162 52.9512 68.4579 53.2464C68.7706 53.6282 69.5921 53.6752 69.94 53.3315C70.3045 52.9711 70.349 51.852 70.2619 45.2587L70.1807 39.1079L69.7968 38.3309C69.233 37.1894 68.2141 36.1557 67.135 35.6303L66.2261 35.1877L60.7541 35.1558C55.6884 35.1262 55.2296 35.1428 54.5751 35.3786ZM12.5679 40.3361C11.3198 40.7843 10.3131 41.655 9.87914 42.6614C9.6381 43.2208 9.59066 44.6973 9.80148 45.0796C9.8842 45.2298 11.1594 45.8258 13.0588 46.602C14.7755 47.3037 17.0415 48.2676 18.0942 48.7441C19.147 49.2205 20.3239 49.7525 20.7097 49.9264L21.4109 50.2426L21.3445 49.4066C21.2073 47.6841 21.9188 45.6876 23.1496 44.3409C23.509 43.9477 23.7797 43.6084 23.7514 43.5868C23.641 43.503 20.2875 42.1169 17.9515 41.1896C15.6922 40.2925 15.404 40.2112 14.3344 40.167C13.5065 40.1328 12.9985 40.1814 12.5679 40.3361ZM49.4715 42.0957C46.8258 42.4679 44.5701 42.8529 42.8405 43.2272C41.0953 43.605 40.988 43.6118 36.8932 43.6018C31.2825 43.5881 27.6205 43.947 26.1436 44.6555C25.3005 45.06 24.2691 46.1133 23.8609 46.9867C23.6177 47.5073 23.563 47.8726 23.563 48.9762C23.563 50.1855 23.6036 50.4098 23.9489 51.1047C24.2383 51.6878 24.5243 52.0159 25.0947 52.4197C26.1745 53.1844 27.0482 53.4643 28.8801 53.6329C32.0725 53.9267 38.8055 53.7835 41.4733 53.3651C42.8646 53.1469 43.2636 53.1895 43.5825 53.5906C43.9383 54.0376 43.9427 54.4535 43.5962 54.8889C43.3098 55.2489 42.7827 55.3631 39.9694 55.6747C36.3872 56.0714 28.5797 55.9414 26.6846 55.4533C25.5982 55.1734 24.5529 54.6504 23.5283 53.8741C22.1388 52.8211 15.9701 49.9726 9.82267 47.5454C8.0933 46.8626 7.90367 46.8168 6.81483 46.8188C5.85328 46.8207 5.52009 46.882 4.88435 47.1734C3.2314 47.9314 2.37964 49.1228 2.38866 50.6647C2.39632 51.9786 2.74003 52.5565 4.53653 54.2757C11.2776 60.7264 17.4949 64.8023 22.3572 65.9583C23.4504 66.2183 23.812 66.2375 26.2291 66.1643C30.5464 66.0335 34.7207 65.4734 38.4825 64.5201C40.7419 63.9476 42.4873 63.3043 44.7546 62.2085C46.727 61.2554 47.4832 61.0776 49.574 61.076L50.8387 61.0749V51.477C50.8387 46.1982 50.8232 41.8867 50.8045 41.8961C50.7858 41.9054 50.1858 41.9951 49.4715 42.0957ZM0.299988 50.6659C0.299988 51.2979 0.32364 51.5564 0.352352 51.2405C0.381199 50.9245 0.381199 50.4073 0.352352 50.0914C0.32364 49.7755 0.299988 50.034 0.299988 50.6659Z" fill="#00395C"/>
<path fill-rule="evenodd" clip-rule="evenodd" d="M9.57726 0.49178C8.61256 0.831355 7.9589 1.37776 7.44443 2.27442C7.07241 2.92315 7.02032 3.13971 7.02333 4.02839C7.02812 5.42671 7.37757 6.02935 9.23149 7.83699C10.865 9.4297 11.4937 9.82199 12.5921 9.93406C14.141 10.0921 15.5363 9.34075 16.3152 7.92959C16.8406 6.97751 16.8808 5.65841 16.4153 4.65077C16.0169 3.78858 13.2178 1.01358 12.3746 0.644805C11.4641 0.246561 10.4337 0.19019 9.57726 0.49178ZM54.5744 0.430407C53.6457 0.729699 53.1639 1.09496 51.5745 2.70416C49.9034 4.39622 49.6057 4.94371 49.6112 6.31674C49.6164 7.62584 50.4606 8.94115 51.7273 9.61368C52.5146 10.0317 54.2281 10.0267 55.0339 9.60395C55.7227 9.24274 57.9019 7.21989 58.5442 6.34567C59.3349 5.26949 59.5393 4.15303 59.1789 2.8803C58.9538 2.08557 57.8863 0.897053 57.1279 0.597086C56.3404 0.285493 55.2456 0.214117 54.5744 0.430407ZM31.8379 2.47922C30.8335 2.75755 30.0921 3.20582 29.3896 3.95932C28.5988 4.80758 27.0557 7.17285 26.1889 8.86532C25.7009 9.81821 25.3911 10.2726 25.2037 10.3107C25.0533 10.3412 24.3173 10.4625 23.5682 10.5802C22.5678 10.7373 22.1232 10.8713 21.8934 11.0847C21.4634 11.484 21.4778 12.1318 21.9257 12.5479L22.2709 12.8684L24.0107 12.6216C24.9676 12.4857 25.8822 12.3258 26.043 12.2661C26.7054 12.0199 27.3479 11.2583 28.0734 9.85836C28.9488 8.16981 30.2231 6.189 30.9361 5.40886C31.9259 4.32552 33.6996 4.10301 34.867 4.91572C35.5703 5.40549 37.0144 7.47281 38.0712 9.50324C39.4071 12.0694 39.5165 12.1564 41.9043 12.5539C43.7061 12.8538 45.8688 13.3759 46.9203 13.765C47.6948 14.0514 48.3962 14.64 48.7589 15.3078C49.0949 15.9261 49.0591 17.3378 48.6904 18.0197C48.2687 18.7991 46.7383 20.6429 45.2047 22.2185C44.4746 22.9686 43.8133 23.749 43.735 23.9528C43.5386 24.4633 43.5602 25.3705 43.8029 26.8064C43.916 27.4756 44.0474 28.9176 44.095 30.0108C44.1688 31.7087 44.1469 32.0876 43.945 32.6105C43.4209 33.9671 41.7889 34.8062 40.357 34.4551C39.352 34.2087 36.7136 33.1433 35.1975 32.3717C33.2905 31.4011 33.0292 31.4165 30.5064 32.6483C27.9692 33.887 25.714 34.639 24.877 34.5256C23.6066 34.3533 22.561 33.408 22.2862 32.1833C22.1231 31.456 22.3193 27.8579 22.6015 26.4009C23.0125 24.28 22.9128 24.0039 21.0483 22.0923C19.3303 20.3309 17.9488 18.6462 17.5975 17.8845C17.2937 17.2253 17.2698 16.0871 17.5463 15.4331C17.6584 15.1677 18.0275 14.6801 18.3666 14.3498C18.861 13.8677 18.9829 13.6564 18.9829 13.282C18.9829 12.6632 18.5838 12.2745 17.9486 12.2745C17.5424 12.2745 17.3421 12.3927 16.747 12.9842C15.1982 14.5232 14.7416 16.8193 15.6134 18.6839C16.0552 19.629 17.6746 21.6641 19.312 23.332L20.6786 24.7241L20.4315 26.3736C20.0559 28.8797 19.9822 31.886 20.2714 32.8931C20.5823 33.9752 21.3255 35.0214 22.247 35.6738C23.9215 36.8595 25.6464 36.9138 28.4166 35.8682C29.3565 35.5133 30.7766 34.8957 31.5725 34.4957C32.3682 34.0956 33.1065 33.769 33.2131 33.7699C33.3196 33.7708 33.6837 33.929 34.0221 34.1214C35.0504 34.7063 37.2907 35.6639 38.7954 36.1618C40.0526 36.5779 40.3486 36.6272 41.3247 36.5834C43.8293 36.4712 45.769 34.7658 46.2104 32.288C46.3872 31.2954 46.1832 27.8387 45.8446 26.0884C45.7338 25.5168 45.6433 24.9842 45.6433 24.9047C45.6433 24.8254 46.1854 24.2157 46.8479 23.5499C48.4264 21.9638 50.2469 19.6956 50.6903 18.7632C51.0004 18.1109 51.0437 17.8454 51.0433 16.6003C51.0429 15.3009 51.0092 15.1149 50.6441 14.4014C50.1757 13.4859 49.0342 12.3671 48.1938 11.9994C47.2052 11.567 44.4333 10.8281 42.9089 10.5906C42.1194 10.4678 41.3402 10.3401 41.1773 10.3072C40.9615 10.2635 40.6571 9.82524 40.0535 8.68904C39.1465 6.9817 37.7468 4.82407 36.9668 3.93079C35.8479 2.64954 33.5597 2.00189 31.8379 2.47922ZM9.8656 2.66982C9.29808 3.01197 9.13907 3.32815 9.13907 4.11437C9.13907 4.75553 9.14727 4.76702 10.6837 6.28619L12.2284 7.81347H12.9091C13.6769 7.81347 14.0985 7.58434 14.4036 7.00089C14.7245 6.38731 14.6593 5.7598 14.2129 5.16392C13.7675 4.56925 12.1177 2.966 11.6037 2.62832C11.1506 2.33065 10.3985 2.34863 9.8656 2.66982ZM54.8719 2.56195C54.2974 2.87178 51.9297 5.31681 51.7853 5.74912C51.4576 6.73134 52.282 7.81347 53.358 7.81347C54.0737 7.81347 54.6059 7.45281 55.9963 6.02489C57.2893 4.69714 57.4859 4.19237 57.0572 3.29936C56.6908 2.53613 55.6014 2.16843 54.8719 2.56195ZM5.64027 22.3849C2.93362 23.3276 2.21051 26.7257 4.3093 28.6386C5.39089 29.6244 5.49535 29.6453 9.34415 29.6453C12.5386 29.6453 12.8023 29.6266 13.3774 29.3595C15.7984 28.2346 16.3908 25.1313 14.535 23.2962C13.5192 22.2919 13.1752 22.2146 9.54923 22.1763C6.7518 22.1469 6.24621 22.1739 5.64027 22.3849ZM53.2313 22.377C52.3146 22.6831 51.2404 23.7377 50.9311 24.635C50.2848 26.5104 51.0703 28.3968 52.8588 29.2653C53.635 29.6421 53.6662 29.6457 56.6844 29.6884C59.1481 29.7232 59.8687 29.6908 60.4694 29.5182C63.1314 28.7531 64.1437 25.5551 62.3716 23.5082C62.1025 23.1972 61.5663 22.7783 61.1799 22.5769C60.4787 22.2116 60.4714 22.2108 57.1962 22.1797C54.4195 22.1535 53.8097 22.1838 53.2313 22.377ZM5.96115 24.5428C5.04048 25.1072 4.9538 26.354 5.78273 27.1106L6.26399 27.5499H9.28687C11.8398 27.5499 12.3687 27.5156 12.6883 27.3288C13.4589 26.8788 13.7274 25.9165 13.3067 25.1122C12.918 24.369 12.601 24.3052 9.31681 24.3092C6.7529 24.3122 6.28381 24.3449 5.96115 24.5428ZM53.459 24.6454C52.6 25.3601 52.6493 26.6354 53.5591 27.2408C54.0072 27.5389 54.128 27.5499 56.9498 27.5499C60.0779 27.5499 60.4237 27.4879 60.8792 26.8447C61.0001 26.6741 61.0927 26.2644 61.0927 25.8998C61.0927 25.3797 61.0161 25.1713 60.694 24.8147L60.2953 24.3732L57.0895 24.3326L53.8838 24.2919L53.459 24.6454ZM54.5751 35.3786C53.6461 35.7131 52.7445 36.3371 52.1642 37.0471C51.5785 37.7637 51.3973 38.1042 51.1038 39.0404L50.8707 39.7838L48.3595 40.1365C45.7609 40.5015 42.3392 41.1147 41.5931 41.3491C41.3544 41.4241 38.9711 41.5024 36.1927 41.5263C31.3516 41.5682 29.2448 41.7126 26.9095 42.1624L26.1544 42.3078L23.765 41.2979C16.3727 38.1736 14.9726 37.7511 13.0679 38.0703C9.98974 38.586 7.72717 40.855 7.53562 43.6183L7.45933 44.718L6.48766 44.7208C4.77798 44.7258 2.81796 45.626 1.66213 46.9371C1.39443 47.2407 0.983041 47.8846 0.748019 48.3679C0.352898 49.1802 0.320633 49.3536 0.320633 50.6659C0.320633 51.9757 0.353719 52.1543 0.748293 52.9778C1.24869 54.022 2.222 55.0838 4.80669 57.4055C11.5602 63.4718 17.1734 66.9423 22.0591 68.0724C24.2608 68.5818 30.826 68.2014 35.7995 67.2766C39.4413 66.5994 42.2827 65.7016 45.3015 64.2748L47.3523 63.3054L49.3348 63.2635L51.3172 63.2214L51.5008 63.6381C51.8597 64.452 52.9956 65.5061 54.0908 66.0416L55.1303 66.5498L60.1578 66.5925C64.4234 66.6287 65.315 66.6023 66.041 66.4185C67.6759 66.0044 68.9617 64.9554 69.7338 63.406L70.1845 62.5015L70.2287 59.7642L70.273 57.027L69.9274 56.6853C69.5156 56.2781 69.0356 56.248 68.5933 56.6016C68.2798 56.8522 68.2684 56.9332 68.1995 59.4066C68.1298 61.914 68.1223 61.9649 67.7245 62.6795C67.5022 63.0788 67.1309 63.5483 66.8994 63.723C65.9465 64.4416 65.8373 64.4544 60.6686 64.4544C57.3789 64.4544 55.6913 64.4043 55.324 64.2955C54.622 64.0876 53.599 63.1872 53.283 62.4996C53.0463 61.9843 53.0321 61.3299 53.0306 50.8687L53.0289 39.7838L53.3517 39.0983C53.5292 38.7213 53.9132 38.2174 54.2049 37.9785C55.1779 37.1815 55.6065 37.1301 60.9112 37.175C65.5001 37.2139 65.693 37.2261 66.229 37.5098C66.5349 37.6716 67.0083 38.0483 67.2809 38.3466C68.1789 39.3295 68.2021 39.5378 68.2021 46.6201C68.2021 52.5877 68.2162 52.9512 68.4579 53.2464C68.7706 53.6282 69.5921 53.6752 69.94 53.3315C70.3045 52.9711 70.349 51.852 70.2619 45.2587L70.1807 39.1079L69.7968 38.3309C69.233 37.1894 68.2141 36.1557 67.135 35.6303L66.2261 35.1877L60.7541 35.1558C55.6884 35.1262 55.2296 35.1428 54.5751 35.3786ZM12.5679 40.3361C11.3198 40.7843 10.3131 41.655 9.87914 42.6614C9.6381 43.2208 9.59066 44.6973 9.80148 45.0796C9.8842 45.2298 11.1594 45.8258 13.0588 46.602C14.7755 47.3037 17.0415 48.2676 18.0942 48.7441C19.147 49.2205 20.3239 49.7525 20.7097 49.9264L21.4109 50.2426L21.3445 49.4066C21.2073 47.6841 21.9188 45.6876 23.1496 44.3409C23.509 43.9477 23.7797 43.6084 23.7514 43.5868C23.641 43.503 20.2875 42.1169 17.9515 41.1896C15.6922 40.2925 15.404 40.2112 14.3344 40.167C13.5065 40.1328 12.9985 40.1814 12.5679 40.3361ZM49.4715 42.0957C46.8258 42.4679 44.5701 42.8529 42.8405 43.2272C41.0953 43.605 40.988 43.6118 36.8932 43.6018C31.2825 43.5881 27.6205 43.947 26.1436 44.6555C25.3005 45.06 24.2691 46.1133 23.8609 46.9867C23.6177 47.5073 23.563 47.8726 23.563 48.9762C23.563 50.1855 23.6036 50.4098 23.9489 51.1047C24.2383 51.6878 24.5243 52.0159 25.0947 52.4197C26.1745 53.1844 27.0482 53.4643 28.8801 53.6329C32.0725 53.9267 38.8055 53.7835 41.4733 53.3651C42.8646 53.1469 43.2636 53.1895 43.5825 53.5906C43.9383 54.0376 43.9427 54.4535 43.5962 54.8889C43.3098 55.2489 42.7827 55.3631 39.9694 55.6747C36.3872 56.0714 28.5797 55.9414 26.6846 55.4533C25.5982 55.1734 24.5529 54.6504 23.5283 53.8741C22.1388 52.8211 15.9701 49.9726 9.82267 47.5454C8.0933 46.8626 7.90367 46.8168 6.81483 46.8188C5.85328 46.8207 5.52009 46.882 4.88435 47.1734C3.2314 47.9314 2.37964 49.1228 2.38866 50.6647C2.39632 51.9786 2.74003 52.5565 4.53653 54.2757C11.2776 60.7264 17.4949 64.8023 22.3572 65.9583C23.4504 66.2183 23.812 66.2375 26.2291 66.1643C30.5464 66.0335 34.7207 65.4734 38.4825 64.5201C40.7419 63.9476 42.4873 63.3043 44.7546 62.2085C46.727 61.2554 47.4832 61.0776 49.574 61.076L50.8387 61.0749V51.477C50.8387 46.1982 50.8232 41.8867 50.8045 41.8961C50.7858 41.9054 50.1858 41.9951 49.4715 42.0957ZM0.299988 50.6659C0.299988 51.2979 0.32364 51.5564 0.352352 51.2405C0.381199 50.9245 0.381199 50.4073 0.352352 50.0914C0.32364 49.7755 0.299988 50.034 0.299988 50.6659Z" stroke="#00395C" stroke-width="0.6" mask="url(#path-1-outside-1_935_2286)"/>
</svg>
