<svg width="74" height="55" viewBox="0 0 74 55" fill="none" xmlns="http://www.w3.org/2000/svg">
<path fill-rule="evenodd" clip-rule="evenodd" d="M47.5234 0.0571134C47.2291 0.112727 46.4437 0.490381 45.7778 0.8962C43.7521 2.13105 42.0025 2.78044 37.1436 4.10036C31.6624 5.58942 29.576 6.28279 27.2408 7.39132C23.8419 9.00469 21.3196 11.3025 20.2099 13.7962C20.0033 14.2604 19.823 14.4538 19.5365 14.5186C13.8488 15.8033 9.61161 18.0718 5.75922 21.8943C3.28556 24.3488 0.812183 27.7975 0.254303 29.5701C-0.064898 30.5841 -0.0855709 31.9476 0.203416 32.9082C0.717058 34.6156 3.12625 37.9765 5.61654 40.46C10.1787 45.01 15.8726 47.7682 22.181 48.484C26.2238 48.9428 31.9846 48.3847 36.017 47.1438L37.1312 46.8009L37.2154 47.466C37.3366 48.4213 37.7203 50.0624 37.9546 50.6275C38.2513 51.3427 38.2043 51.8436 37.8056 52.2158L37.4557 52.5426L33.1433 52.4739C29.7911 52.4205 28.6219 52.3524 27.8914 52.1681C27.3746 52.0376 26.6545 51.8934 26.2912 51.8474C25.6763 51.7698 25.6031 51.7966 25.2304 52.237C24.9159 52.6084 24.8486 52.8027 24.9167 53.1414C25.0455 53.7816 25.3827 54.0676 26.3642 54.3689C28.1068 54.904 29.3931 55.0132 33.78 54.9988C37.815 54.9857 38.0354 54.9709 38.6586 54.671C39.5035 54.2645 40.275 53.359 40.5442 52.4583C40.8373 51.4775 40.8206 51.281 40.317 49.7543C40.0314 48.8889 39.8458 47.9759 39.7897 47.1619L39.7031 45.9054L40.4834 45.5866C43.0732 44.5285 47.9278 41.8572 48.3503 41.2576C48.7162 40.7382 48.6215 40.0852 48.1195 39.6653C47.8749 39.4607 47.5387 39.2933 47.3726 39.2933C47.2065 39.2933 46.252 39.7709 45.2514 40.355C37.7649 44.7238 30.099 46.7114 23.2653 46.0557C21.6959 45.9051 19.5368 45.5506 19.4078 45.4222C19.3843 45.3988 19.6852 44.7378 20.0766 43.9532C21.8847 40.3278 22.8125 36.2103 22.8804 31.5093L22.9098 29.4734L25.0031 28.9393C26.1543 28.6454 27.7675 28.1972 28.5879 27.9431C30.2625 27.4245 30.7963 27.4384 31.4243 28.0168C32.8455 29.3261 32.8835 32.9848 31.4909 34.44C30.8819 35.0764 31.0438 35.0589 28.6016 34.7527C27.9846 34.6754 27.9108 34.7022 27.5407 35.1394C27.1032 35.6561 27.1062 36.2411 27.5486 36.7272C28.2308 37.4764 30.7432 37.7367 31.9608 37.1843C33.8232 36.3392 35.0241 34.037 35.0208 31.3177C35.0182 29.0501 34.3554 27.2973 33.0642 26.1435C31.7024 24.9263 30.3441 24.7815 27.7468 25.5762C25.9571 26.1238 22.6734 26.9748 22.6182 26.9053C22.5997 26.882 22.5033 26.3456 22.4038 25.7133C22.1851 24.3212 21.3569 21.4001 20.9636 20.6341C20.4191 19.573 19.1713 19.5205 18.6831 20.5384C18.4774 20.967 18.4907 21.0692 18.9075 22.2759C21.2279 28.9936 20.7495 37.1929 17.6926 43.1014C16.9826 44.4736 16.9287 44.5376 16.4983 44.5179C15.8561 44.4884 12.8875 43.0329 11.268 41.9534C8.57985 40.1612 6.32332 37.941 4.40204 35.1977C2.16084 31.9976 2.01338 31.1325 3.33876 28.9615C5.42875 25.5382 8.61903 22.2388 11.7375 20.2757C14.6665 18.4317 18.2248 17.1686 21.9642 16.6457C24.1906 16.3343 29.0034 16.4424 31.2164 16.8535C35.1499 17.5842 38.1875 18.6029 41.9865 20.4656C45.7327 22.3023 48.6468 24.2488 52.152 27.2556C53.5449 28.4505 53.8629 28.6592 54.291 28.6592C54.6366 28.6592 54.9086 28.5451 55.1611 28.294C55.5201 27.9372 55.5257 27.9004 55.4075 26.6774C54.925 21.684 56.1912 17.6449 59.1656 14.6882C61.621 12.2474 64.8051 10.9023 68.5164 10.7378C70.3241 10.6577 70.3258 10.658 70.7907 11.0469C71.4576 11.6046 71.6408 12.3168 71.3289 13.1392C70.3319 15.7687 70.2045 16.4534 69.9661 20.4681C69.7426 24.232 69.1771 25.8736 67.4642 27.7319C66.9672 28.2711 65.9986 29.0629 65.1787 29.6003C63.9442 30.4094 63.7436 30.5972 63.6642 31.018C63.5306 31.7257 63.7522 32.0098 65.1846 32.9671C67.3967 34.4457 68.6516 35.92 69.3172 37.8225C69.6858 38.8762 69.859 40.2035 70.0995 43.8211C70.2515 46.1035 70.5565 47.5716 71.1894 49.0666C71.6048 50.0475 71.5991 50.5063 71.163 51.1678C70.6437 51.9557 69.5567 52.1045 67.0572 51.73C60.0784 50.6842 55.4183 45.3901 55.3074 38.3818C55.296 37.6581 55.3392 36.5403 55.4034 35.898C55.5134 34.7978 55.5009 34.7083 55.1866 34.353C54.6684 33.7674 54.047 33.7161 53.4982 34.2133C53.1162 34.5597 53.0246 34.7782 52.9044 35.6288C52.8264 36.1821 52.7625 37.2491 52.7625 37.9999C52.7625 45.3097 56.9698 51.2717 63.7133 53.5175C66.21 54.349 69.7198 54.6414 71.1992 54.1413C72.2333 53.7918 73.4741 52.5239 73.7782 51.5062C74.1269 50.3394 74.0711 49.4853 73.5641 48.2269C72.8988 46.5753 72.7277 45.6539 72.5589 42.814C72.3694 39.6258 72.11 38.0281 71.5461 36.5744C70.873 34.8396 69.8042 33.4267 68.0606 31.9673L67.2452 31.2848L68.2897 30.4184C69.5758 29.3516 70.5577 28.0845 71.2678 26.5755C71.9653 25.0936 72.2511 23.7873 72.4272 21.2763C72.7389 16.8345 72.821 16.3652 73.7046 13.9691C74.3009 12.3518 73.9362 10.6175 72.7525 9.44068C71.6992 8.39366 71.058 8.17939 69.0204 8.19305C64.6857 8.22208 60.7217 9.77235 57.7082 12.6173C54.8059 15.3571 53.132 18.9432 52.8096 23.1119C52.757 23.7918 52.6902 24.3481 52.6609 24.3481C52.6317 24.3481 52.1187 23.9618 51.521 23.4896C46.0201 19.1443 39.2193 15.9166 32.8981 14.651C30.1375 14.0983 28.5979 13.9455 25.7045 13.9373L23.0119 13.9298L23.41 13.3549C23.9356 12.5957 25.0012 11.6179 26.1388 10.851C28.2075 9.45649 31.2245 8.32454 37.4327 6.61389C43.4115 4.96632 45.2673 4.26217 47.3919 2.83433C48.0284 2.40667 48.4897 2.41788 48.9468 2.87227C49.2598 3.18339 49.3011 3.31976 49.2173 3.76381C49.0521 4.63954 48.5692 5.40376 47.6042 6.31685C46.4954 7.36632 46.4599 7.60602 47.187 9.13646C47.9856 10.8172 48.1854 11.8134 48.0621 13.4984C47.9067 15.6211 47.9135 15.7024 48.2799 16.0901C48.7816 16.6208 49.5789 16.5818 50.0694 16.0022C50.2752 15.7591 50.4436 15.5149 50.4436 15.4596C50.4436 15.4042 50.5106 14.828 50.5926 14.179C50.8175 12.3958 50.512 10.4151 49.709 8.44827C49.5322 8.01529 49.5497 7.96815 50.1308 7.31185C51.4047 5.87324 52.0456 3.77473 51.6109 2.46545C51.0624 0.813283 49.2307 -0.265789 47.5234 0.0571134ZM11.3321 26.8564C11.008 27.1786 10.9772 27.321 10.9772 28.501C10.9772 29.6529 11.0143 29.8357 11.3198 30.1888C11.5809 30.4904 11.7921 30.5848 12.206 30.5848C12.6199 30.5848 12.8311 30.4904 13.0922 30.1888C13.3976 29.8357 13.4348 29.6529 13.4348 28.501C13.4348 27.321 13.404 27.1786 13.0799 26.8564C12.835 26.6129 12.5644 26.5036 12.206 26.5036C11.8476 26.5036 11.577 26.6129 11.3321 26.8564Z" fill="#00395C"/>
</svg>
