<svg width="57" height="66" viewBox="0 0 57 66" fill="none" xmlns="http://www.w3.org/2000/svg">
<path fill-rule="evenodd" clip-rule="evenodd" d="M26.2219 0.105005C18.8924 0.871717 12.3089 5.41007 8.97203 11.9962C7.44326 15.0135 6.72335 18.0907 6.73845 21.5426C6.75344 24.9374 7.30757 27.5985 8.79842 31.4342C10.9808 37.0491 15.2849 43.3828 21.257 49.768C23.5535 52.2234 27.1617 55.6476 27.8221 55.9984C28.1261 56.1599 28.8253 56.1551 29.1441 55.9893C29.8306 55.6323 34.0053 51.6426 36.3253 49.1263C44.0484 40.7498 48.7137 32.6107 49.9627 25.3346C51.0244 19.1501 49.2697 12.6018 45.2805 7.86073C44.3268 6.72734 42.5811 5.06856 41.5216 4.28894C39.7989 3.02133 37.2597 1.69367 35.4162 1.09662C32.5492 0.168012 29.1371 -0.199974 26.2219 0.105005ZM26.5218 3.05065C18.48 3.89043 11.729 9.93498 10.0702 17.7806C9.41438 20.8828 9.62635 24.4006 10.6761 27.8375C12.3984 33.4762 16.1696 39.5633 22.1153 46.3016C23.1328 47.4548 28.3546 52.7105 28.4828 52.7105C28.608 52.7105 32.7678 48.5773 34.1075 47.1217C42.969 37.4933 47.6631 28.1602 47.2793 20.9328C47.0747 17.0809 45.9662 13.8501 43.8081 10.8171C39.9319 5.36916 33.2156 2.35165 26.5218 3.05065ZM26.9197 10.5966C25.0383 10.9126 23.1759 11.7247 21.8196 12.8205C16.6907 16.964 16.3906 24.4073 21.172 28.8793C22.7853 30.3881 24.5735 31.2488 26.9719 31.6705C28.7144 31.9769 30.8544 31.6892 32.7707 30.8907C34.2965 30.2551 36.1889 28.728 37.2485 27.2774C37.7639 26.5717 38.6457 24.7277 38.87 23.8863C39.4312 21.7822 39.3095 19.5539 38.5157 17.3953C37.2265 13.8897 33.8932 11.1831 30.1564 10.6077C29.2769 10.4723 27.6924 10.4668 26.9197 10.5966ZM27.0471 13.5585C25.4595 13.8676 24.0606 14.6542 22.8569 15.9147C19.026 19.926 20.6693 26.5682 25.9429 28.3882C26.381 28.5394 27.1745 28.7176 27.7061 28.7842C28.5617 28.8914 28.8095 28.8785 29.8624 28.6724C31.6585 28.321 32.6713 27.7861 33.9306 26.5239C35.5346 24.9162 36.2242 23.2958 36.2168 21.1516C36.2092 18.9217 35.487 17.2168 33.8696 15.6111C33.1842 14.9307 32.833 14.682 31.9893 14.2803C31.4188 14.0085 30.5949 13.7083 30.1586 13.6129C29.3124 13.4281 27.8486 13.4025 27.0471 13.5585ZM14.6931 48.7128C8.27935 49.7876 3.54126 51.5828 1.39818 53.7503C0.288281 54.873 -0.147675 56.0411 0.0435723 57.3806C0.653911 61.658 8.5547 64.768 21.5825 65.8589C23.8321 66.0473 32.796 66.047 35.1958 65.8585C46.8479 64.9429 54.8785 62.2059 56.5953 58.5651C57.6725 56.2809 56.5735 53.9441 53.6052 52.2076C51.2006 50.8009 46.6049 49.3984 42.0043 48.6673C40.2667 48.3912 39.9712 48.3901 39.5277 48.6587C38.8242 49.0843 38.6283 50.1076 39.1215 50.7804C39.4037 51.1655 39.939 51.3349 41.7544 51.6138C46.9614 52.4139 51.3994 53.9581 53.258 55.6164C54.2793 56.5276 54.2902 57.1718 53.3008 58.1382C51.7941 59.6097 47.3665 61.1841 42.3056 62.048C37.5618 62.8577 34.9421 63.0478 28.5269 63.0478C23.1069 63.0478 21.8081 62.9846 18.1103 62.5408C13.2229 61.9543 8.1431 60.6831 5.59923 59.4101C4.19811 58.7089 3.10067 57.733 2.96696 57.0696C2.79842 56.2335 3.851 55.2234 5.92992 54.226C8.46332 53.0104 11.5964 52.1745 16.5437 51.394C17.4907 51.2446 17.9313 50.9395 18.1246 50.2994C18.3006 49.7164 18.0247 48.9825 17.511 48.6674C17.0518 48.3858 16.6018 48.393 14.6931 48.7128Z" fill="#00395C"/>
</svg>
